<svg xmlns="http://www.w3.org/2000/svg" version="1.1" xmlns:xlink="http://www.w3.org/1999/xlink" xmlns:svgjs="http://svgjs.dev/svgjs" width="1000" height="1012" viewBox="0 0 1000 1012"><g transform="matrix(1,0,0,1,0.883934426229473,0.40971659919023296)"><svg viewBox="0 0 244 247" data-background-color="#ffffff" preserveAspectRatio="xMidYMid meet" height="1012" width="1000" xmlns="http://www.w3.org/2000/svg" xmlns:xlink="http://www.w3.org/1999/xlink"><g id="tight-bounds" transform="matrix(1,0,0,1,-0.21567999999999188,-0.09999999999999432)"><svg viewBox="0 0 244.43135999999998 247.2" height="247.2" width="244.43135999999998"><g><svg></svg></g><g><svg viewBox="0 0 244.43135999999998 247.2" height="247.2" width="244.43135999999998"><g transform="matrix(1,0,0,1,0,76.74595177829099)"><svg viewBox="0 0 244.43135999999998 93.708096443418" height="93.708096443418" width="244.43135999999998"><g><svg viewBox="0 0 244.43135999999998 93.708096443418" height="93.708096443418" width="244.43135999999998"><g><svg viewBox="0 0 244.43135999999998 93.708096443418" height="93.708096443418" width="244.43135999999998"><g><svg viewBox="0 0 244.43135999999998 93.708096443418" height="93.708096443418" width="244.43135999999998"><g id="textblocktransform"><svg viewBox="0 0 244.43135999999998 93.708096443418" height="93.708096443418" width="244.43135999999998" id="textblock"><g><svg viewBox="0 0 244.43135999999998 93.708096443418" height="93.708096443418" width="244.43135999999998"><g transform="matrix(1,0,0,1,0,0)"><svg width="244.43135999999998" viewBox="3.75 -32.6 86.6 33.2" height="93.708096443418" data-palette-color="#da6e00"><path d="M4.4-16L4.4-16 7.75-32.6 14.6-32.6 11.05-14.75Q10.85-13.75 10.75-12.8 10.65-11.85 10.65-10.95L10.65-10.95Q10.65-8.2 11.75-6.75 12.85-5.3 15.6-5.3L15.6-5.3Q17.95-5.3 19.5-7.23 21.05-9.15 21.95-13.7L21.95-13.7 25.75-32.6 32.45-32.6 28.65-13.8Q27.15-6.3 23.88-2.85 20.6 0.6 15.4 0.6L15.4 0.6Q9.6 0.6 6.68-2.18 3.75-4.95 3.75-10.75L3.75-10.75Q3.75-11.85 3.95-13.28 4.15-14.7 4.4-16ZM40.45 0L33.55 0 40.1-32.6 46.95-32.6 44.3-19.2 44.45-19.2 56.7-32.6 64.2-32.6 52.35-19.2 59.65 0 52.5 0 47.3-14.9 42.35-9.55 40.45 0ZM75.35 0L68.5 0 73.8-26.8 65.25-26.8 66.35-32.6 90.35-32.6 89.2-26.8 80.65-26.8 75.35 0Z" opacity="1" transform="matrix(1,0,0,1,0,0)" fill="#da6e00" class="undefined-text-0" data-fill-palette-color="primary" id="text-0"></path></svg></g></svg></g></svg></g></svg></g><g></g></svg></g></svg></g></svg></g><path d="M0 70.746L0 1 244.431 1 244.431 70.746 235.981 70.746 235.981 9.451 8.451 9.451 8.451 70.746 0 70.746M0 176.454L0 246.2 244.431 246.2 244.431 176.454 235.981 176.454 235.981 237.749 8.451 237.749 8.451 176.454 0 176.454" fill="#da6e00" stroke="transparent" data-fill-palette-color="primary"></path></svg></g><defs></defs></svg><rect width="244.43135999999998" height="247.2" fill="none" stroke="none" visibility="hidden"></rect></g></svg></g></svg>