<?xml version="1.0" encoding="utf-8"?>
<!-- Generator: Adobe Illustrator 27.5.0, SVG Export Plug-In . SVG Version: 6.00 Build 0)  -->
<svg version="1.1" id="Layer_1" xmlns="http://www.w3.org/2000/svg" xmlns:xlink="http://www.w3.org/1999/xlink" x="0px" y="0px"
	 viewBox="0 0 221 62" style="enable-background:new 0 0 221 62;" xml:space="preserve">
<style type="text/css">
	.st0{fill:none;stroke:#fff;stroke-miterlimit:10;}
	.st1{fill:#fff;}
	.st2{stroke:#fff;fill:#fff;stroke-width:0.4075;stroke-linecap:round;stroke-linejoin:round;} 
	.st3{fill:#23282B;stroke:#23282B;stroke-width:0.4075;stroke-linecap:round;stroke-linejoin:round;}
	.st4{fill:#23282B; stroke:#23282B; stroke-width:0.4075; stroke-linecap:round; stroke-linejoin:round;}
	.st5{fill: #da6e00; stroke:#000; stroke-width:0.4075 }
</style>
<path class="st0" d="M210.8,34.3h-2.2v0.9h2.2V34.3z"/>
<path class="st0" d="M208.1,36.5h3.1V38l-0.4,0.3h-2.3l-0.4-0.3V36.5z"/>
<path class="st0" d="M213.3,33.9v-0.7v-0.3h-7.1v0.3v0.7H213.3z"/>
<path class="st0" d="M209.2,38.6h-0.7l-0.6-0.4v-1.9h0.3v-0.8l0,0l0.1-0.3v-0.9h-2.6v-1.3l-0.9,0v-2.3l-3.2-2.7V2.3h16.1V28
	l-3.2,2.7v2.3l-0.9,0v1.3H211v0.9l0.1,0.3l0,0.1l0,0.7h0.3v1.9l-0.6,0.4h-0.7 M209.2,38.6v4.9h1v-4.9 M209.2,38.6h1"/>
<path class="st0" d="M208.5,35.4h2.3l0.1,0.2v0.7h-2.4v-0.7L208.5,35.4z"/>
<path class="st0" d="M213.2,9.7h-7l-4-6.9h14.9L213.2,9.7z"/>
<path class="st0" d="M213.1,10.2v21l-6.7,0V10.2H213.1z"/>
<path class="st0" d="M205.3,32.5v-1.4l0.8,0.6h7.3l0.8-0.6v1.4H205.3z"/>
<path class="st0" d="M213.5,31V10l3.8-6.6v24.3L213.5,31z"/>
<path class="st0" d="M202.1,27.8V3.5l3.8,6.6l0,21L202.1,27.8z"/>
<path class="st1" d="M209.6,38.7v4.5h0.1v-4.5H209.6z"/>
<path   d="M157.6,38l-0.1-0.2l-0.1-0.2l-0.1-0.2l0-0.2l0-0.2l0-0.2l0-0.3l0-0.3l0-0.3l0.1-0.3l2.6-11.7l0.1-0.4l0.1-0.4l0.1-0.3
	l0.2-0.3l0.2-0.3l0.2-0.3l0.2-0.2l0.2-0.2l0.2-0.2l0.3-0.2l0.3-0.1l0.3-0.1l0.4-0.1l0.4-0.1l0.4,0l0.4,0h10.8l-0.8,3.6h-8.7l-0.3,0
	l-0.3,0l-0.2,0.1l-0.1,0l-0.1,0l-0.1,0.1l-0.1,0.1l-0.1,0.2l-0.1,0.2l-0.1,0.3l-2,8.7l0,0.2l0,0.2l0,0.1l0,0.1l0.1,0.1l0.1,0.1
	l0.1,0.1l0.2,0l0.2,0l0.2,0h8.8l-0.8,3.6H160l-0.3,0l-0.3,0l-0.3,0l-0.3-0.1l-0.2-0.1l-0.2-0.1l-0.2-0.1l-0.2-0.1l-0.1-0.1L157.6,38
	z"/>
<path   d="M153.3,28.5l-0.7,2.9h-7.1l-0.9,3.8h9.8l-0.8,3.6h-14.3l3-13.1h4.5l-0.7,2.9H153.3z"/>
<path class="st5" d="M102.9,32.3L103,32l0-0.3l0-0.2l0-0.1l0-0.1l0-0.1l0,0l0,0l-0.1,0l-0.1-0.1l-0.2,0l-0.2,0l-0.3,0h-6.3l0.4-1.8l8.9-8.5h4.7
	l-7.9,7.3h3.1l0.3,0l0.3,0l0.3,0l0.3,0.1l0.3,0.1l0.2,0.1l0.2,0.1l0.2,0.1l0.2,0.2l0.1,0.2l0.1,0.2l0.1,0.2l0.1,0.2l0.1,0.2l0,0.3
	l0,0.3l0,0.3l0,0.3l-0.1,0.3l-0.1,0.3l-1.6,6.9h-4.4L102.9,32.3z"/>
<path  d="M157,24.3h-14.3l0.8-3.5h14.3L157,24.3z"/>
<path class="st2" d="M0.9,56l-0.2-0.4l-0.2-0.4l-0.2-0.4l-0.1-0.4l-0.1-0.4L0,53.5L0,53.1l-0.1-0.5l0-0.5l0-0.5l0-0.5l0-0.5l0-0.5
	l0-0.5L0,49.4L0,48.9l0.1-0.4L0.3,48l0.1-0.4l0.2-0.4l0.2-0.4l0.2-0.4l0.2-0.4l0.2-0.4l0.2-0.3L1.8,45l0.3-0.3l0.3-0.3l0.3-0.3
	l0.3-0.3l0.3-0.3l0.3-0.2l0.3-0.2l0.3-0.2l0.3-0.2l0.4-0.2l0.4-0.1l0.4-0.1L6,42.2l0.4-0.1l0.4-0.1l0.4,0l0.4,0v0h200.5v1.5H14.6
	h-0.9l-6.1,0l-0.3,0l-0.3,0l-0.3,0l-0.3,0.1L6,43.7l-0.3,0.1l-0.3,0.1L5,44.1l-0.3,0.2l-0.3,0.2l-0.3,0.2l-0.3,0.2L3.7,45l-0.2,0.2
	l-0.2,0.2L3,45.7L2.7,46l-0.2,0.3l-0.2,0.3l-0.2,0.3L2,47.2l-0.2,0.3l-0.1,0.3l-0.1,0.3l-0.1,0.4l-0.1,0.4l-0.1,0.4l-0.1,0.4L1.1,50
	l0,0.4l0,0.4l0,0.4l0,0.4l0,0.4l0,0.4l0.1,0.4l0.1,0.4l0.1,0.4l0.1,0.4l0.1,0.4l0.1,0.3l0.1,0.3L2,55.2l0.2,0.3l0.2,0.3l0.2,0.3
	l0.2,0.3L3,56.7l0.2,0.3l0.2,0.2l0.2,0.2l0.3,0.2l0.3,0.2L4.5,58l0.3,0.2L5,58.3l0.3,0.1l0.3,0.1L6,58.7l0.3,0.1l0.3,0.1l0.3,0
	l0.3,0l0.3,0l0.1,0l0.4,0h3.7h0.5h126.9v1.5H7.9l0,0l-0.3,0l-0.4,0l-0.4,0l-0.4-0.1L6,60.2l-0.4-0.1L5.3,60l-0.4-0.1l-0.4-0.2
	l-0.3-0.2l-0.3-0.2l-0.3-0.2l-0.3-0.2l-0.3-0.3l-0.3-0.3L2.4,58l-0.3-0.3l-0.3-0.3l-0.2-0.3l-0.2-0.3l-0.2-0.4L0.9,56z"/>
<path  d="M177.6,20.8h4.3l-1.6,7.1h7.5l1.6-7.1h4.3l-4.1,17.9h-4.3l1.7-7.4h-7.5l-1.7,7.4h-4.3L177.6,20.8z"/>
<path class="st5" d="M10.1,35.1h5.7l0.3,0l0.2,0l0.2-0.1l0.1-0.1l0.1,0l0.1-0.1l0.1-0.1l0.1-0.1l0.1-0.2l0.1-0.3l3-13.4h4.1l-3.4,14.8L20.7,36
	l-0.1,0.4l-0.1,0.3L20.3,37l-0.2,0.3L20,37.5l-0.2,0.2l-0.2,0.2l-0.2,0.2l-0.3,0.2l-0.3,0.1l-0.3,0.1l-0.4,0.1l-0.4,0.1l-0.4,0
	l-0.4,0H7.3l-0.4,0l-0.3,0l-0.3,0L6,38.6l-0.2-0.1l-0.2-0.1l-0.2-0.1l-0.2-0.1L5,38.1L4.9,38l-0.1-0.2l-0.1-0.2l-0.1-0.2l0-0.2
	l0-0.2l0-0.2l0-0.3l0-0.3l0-0.3l0.1-0.3L8,20.8h4.3l-3,13.4l-0.1,0.3l0,0.2l0,0.1l0,0.1L9.3,35L9.4,35l0.1,0l0.1,0l0.2,0L10.1,35.1z
	"/>
<path class="st5" d="M65.1,29L65.1,29l0.1-0.1l0.1-0.1l0.1-0.2l0.1-0.2l0.1-0.3l0.7-2.9l0-0.2l0-0.2l0-0.1l0-0.1l-0.1-0.1l-0.1-0.1l-0.1,0
	l-0.2,0l-0.2,0l-0.2,0H55.2l0.8-3.5h12.2l0.4,0l0.3,0l0.3,0l0.3,0.1l0.3,0.1l0.2,0.1l0.2,0.1l0.2,0.1l0.2,0.1l0.1,0.1l0.1,0.2
	l0.1,0.2l0.1,0.2l0.1,0.2l0,0.2l0,0.2l0,0.2l0,0.3l-0.1,0.6L70,27.7l-0.1,0.3l-0.1,0.3l-0.1,0.3l-0.1,0.3l-0.2,0.2l-0.2,0.2L69,29.5
	l-0.2,0.2l-0.2,0.1l-0.2,0.1L68.2,30L68,30.1l-0.2,0.1l-0.2,0.1l-0.2,0l-0.2,0l0.4,0l0.4,0.1l0.2,0.1l0.2,0.1l0.2,0.1l0.2,0.1
	l0.1,0.1l0.1,0.1l0.1,0.1l0.1,0.1l0.1,0.2l0,0.2l0,0.2l0,0.2v0.3l0,0.1l0,0.2l-1.4,6.2h-4.3l1.3-5.8l0-0.2l0-0.2l0-0.1l0-0.1
	l-0.1-0.1l-0.1-0.1l-0.1,0l-0.1,0l-0.2,0L64,32h-6.2l-1.5,6.7h-4.3l3-13.1h4.3l-0.8,3.5h5.9l0.3,0l0.2,0L65.1,29z"/>
<path class="st5" d="M39.2,24.3l0.8-3.5h13.7l-0.8,3.5h-4.7l-3.3,14.4h-4.3l3.3-14.4H39.2z"/>
<path  class="st5" d="M28.3,35.1h8.6l-0.8,3.6H23.2l4.1-17.9h4.3L28.3,35.1z"/>
<path class="st5" d="M85.3,20.8h-5.7l-10,17.9h4.2l1.5-2.8h6.9l0.2,2.8h4.3L85.3,20.8z M76.9,33l4.7-8.6l0.6,8.6H76.9z"/>
<path class="st5" d="M113.1,20.8h4.3l-4.1,17.9H109L113.1,20.8z"/>
<path  d="M127.6,20.8h13.7l-0.8,3.5h-4.7l-3.3,14.4h-4.3l3.3-14.4h-4.7L127.6,20.8z"/>
<path  class="st5" d="M92.9,20.8h4.3l-4.1,17.9h-4.3L92.9,20.8z"/>
<path class="st3" d="M5.6,55.1H10v0.7H4.5v-0.2L9,47.8H4.9v-0.7H10v0.2L5.6,55.1z"/>
<path class="st3" d="M14.1,47.1h-0.7l-2.8,8.7h0.8l0.8-2.6h3.2l0.8,2.6h0.8L14.1,47.1z M12.4,52.5l1.2-3.9c0-0.1,0-0.2,0.1-0.3
	s0-0.2,0.1-0.3h0c0,0.1,0,0.2,0.1,0.3c0,0.1,0.1,0.2,0.1,0.3l1.2,3.9H12.4z"/>
<path class="st3" d="M25.2,48.6c-0.1-0.3-0.3-0.6-0.5-0.8c-0.2-0.2-0.5-0.4-0.8-0.5c-0.3-0.1-0.6-0.2-1-0.2H21v8.7h0.7v-3.4h1
	c0.4,0,0.8-0.1,1.1-0.2c0.3-0.1,0.6-0.3,0.8-0.6c0.2-0.2,0.4-0.5,0.5-0.9c0.1-0.3,0.2-0.7,0.2-1.1C25.4,49.2,25.4,48.9,25.2,48.6z
	 M24.2,51.2c-0.3,0.3-0.8,0.5-1.5,0.5h-1v-3.8h1.1c1.2,0,1.8,0.6,1.8,1.8C24.7,50.3,24.5,50.8,24.2,51.2z"/>
<path class="st3" d="M30.5,53.1c-0.1-0.2-0.2-0.3-0.2-0.5c-0.1-0.1-0.2-0.3-0.2-0.4c-0.1-0.1-0.2-0.2-0.2-0.3s-0.2-0.1-0.3-0.2v0
	c0.3-0.1,0.5-0.2,0.7-0.3s0.4-0.3,0.5-0.5c0.1-0.2,0.3-0.4,0.3-0.7c0.1-0.3,0.1-0.5,0.1-0.9c0-0.4-0.1-0.7-0.2-1
	c-0.1-0.3-0.3-0.5-0.5-0.7c-0.2-0.2-0.4-0.3-0.7-0.4c-0.3-0.1-0.5-0.1-0.8-0.1h-2.2v8.7h0.7V52h0.8c0.2,0,0.3,0,0.4,0.1
	s0.2,0.1,0.4,0.2c0.1,0.1,0.2,0.2,0.3,0.4c0.1,0.2,0.2,0.4,0.3,0.6l1.1,2.5h0.8L30.5,53.1z M28.9,51.3h-1.2v-3.5h1.3
	c0.5,0,0.9,0.1,1.2,0.4c0.3,0.3,0.4,0.7,0.4,1.2c0,0.3,0,0.5-0.1,0.8c-0.1,0.2-0.2,0.4-0.3,0.6c-0.1,0.2-0.3,0.3-0.5,0.4
	C29.3,51.3,29.1,51.3,28.9,51.3z"/>
<path class="st3" d="M33.1,55.8v-8.7h3.6v0.7h-2.9V51h2.7v0.7h-2.7v3.3h3.1v0.7H33.1z"/>
<path class="st3" d="M43.5,55.5c-0.6,0.3-1.2,0.5-2,0.5c-0.5,0-1-0.1-1.4-0.3c-0.4-0.2-0.8-0.5-1.1-0.9c-0.3-0.4-0.5-0.8-0.7-1.4
	c-0.2-0.5-0.2-1.1-0.2-1.7c0-0.7,0.1-1.3,0.3-1.8c0.2-0.6,0.4-1.1,0.8-1.5c0.3-0.4,0.7-0.7,1.2-1c0.5-0.2,1-0.4,1.6-0.4
	c0.6,0,1.2,0.1,1.7,0.3v0.9c-0.5-0.3-1.1-0.5-1.7-0.5c-0.5,0-0.9,0.1-1.3,0.3c-0.4,0.2-0.7,0.5-0.9,0.8c-0.3,0.3-0.5,0.8-0.6,1.2
	c-0.1,0.5-0.2,1-0.2,1.5c0,0.5,0.1,1,0.2,1.4c0.1,0.4,0.3,0.8,0.5,1.2c0.2,0.3,0.5,0.6,0.9,0.8c0.4,0.2,0.8,0.3,1.2,0.3
	c0.7,0,1.3-0.2,1.9-0.5V55.5z"/>
<path class="st3" d="M45.7,55.8H45v-8.7h0.7V55.8z"/>
<path class="st3" d="M48,55.1h4.4v0.7H47v-0.2l4.4-7.7h-4.1v-0.7h5.1v0.2L48,55.1z"/>
<path class="st4" d="M56.5,47.1h-0.7L53,55.8h0.8l0.8-2.6h3.2l0.8,2.6h0.8L56.5,47.1z M54.8,52.5l1.2-3.9c0-0.1,0-0.2,0.1-0.3
	c0-0.1,0-0.2,0.1-0.3h0c0,0.1,0,0.2,0.1,0.3c0,0.1,0.1,0.2,0.1,0.3l1.2,3.9H54.8z"/>
<path class="st3" d="M65.7,55.8l-4.1-7c-0.1-0.1-0.1-0.2-0.2-0.3c-0.1-0.1-0.1-0.2-0.1-0.3h0c0,0.1,0,0.2,0,0.3c0,0.1,0,0.3,0,0.5
	v6.8h-0.7v-8.7h0.8l4.1,6.9c0.1,0.1,0.1,0.2,0.2,0.3c0.1,0.1,0.1,0.2,0.1,0.3h0c0-0.1,0-0.3,0-0.5c0-0.2,0-0.4,0-0.6v-6.5h0.7v8.7
	H65.7z"/>
<path class="st3" d="M74.9,53.1c-0.1-0.2-0.2-0.3-0.2-0.5c-0.1-0.1-0.2-0.3-0.2-0.4c-0.1-0.1-0.2-0.2-0.2-0.3s-0.2-0.1-0.3-0.2v0
	c0.3-0.1,0.5-0.2,0.7-0.3s0.4-0.3,0.5-0.5c0.1-0.2,0.3-0.4,0.3-0.7c0.1-0.3,0.1-0.5,0.1-0.9c0-0.4-0.1-0.7-0.2-1
	c-0.1-0.3-0.3-0.5-0.5-0.7c-0.2-0.2-0.4-0.3-0.7-0.4c-0.3-0.1-0.5-0.1-0.8-0.1h-2.1v8.7h0.7V52h0.8c0.2,0,0.3,0,0.4,0.1
	c0.1,0,0.2,0.1,0.4,0.2c0.1,0.1,0.2,0.2,0.3,0.4c0.1,0.2,0.2,0.4,0.3,0.6l1.1,2.5h0.8L74.9,53.1z M73.2,51.3h-1.2v-3.5h1.3
	c0.5,0,0.9,0.1,1.2,0.4c0.3,0.3,0.4,0.7,0.4,1.2c0,0.3,0,0.5-0.1,0.8c-0.1,0.2-0.2,0.4-0.3,0.6c-0.1,0.2-0.3,0.3-0.5,0.4
	C73.6,51.3,73.4,51.3,73.2,51.3z"/>
<path class="st3" d="M77.4,55.8v-8.7H81v0.7h-2.9V51h2.7v0.7h-2.7v3.3h3.1v0.7H77.4z"/>
<path class="st3" d="M83.1,55.1h4.4v0.7H82v-0.2l4.4-7.7h-4.1v-0.7h5.1v0.2L83.1,55.1z"/>
</svg>
