<?xml version="1.0" standalone="no"?>
<!DOCTYPE svg PUBLIC "-//W3C//DTD SVG 20010904//EN"
 "http://www.w3.org/TR/2001/REC-SVG-20010904/DTD/svg10.dtd">
<svg version="1.0" xmlns="http://www.w3.org/2000/svg"
 width="389.000000pt" height="129.000000pt" viewBox="0 0 389.000000 129.000000"
 preserveAspectRatio="xMidYMid meet">

<g transform="translate(0.000000,129.000000) scale(0.100000,-0.100000)"
fill="#000000" stroke="none">
<path d="M1000 1080 l0 -140 -45 0 -45 0 0 -71 0 -71 43 4 42 3 5 -175 c6
-193 13 -219 71 -261 35 -24 107 -35 163 -25 l36 7 0 64 0 65 -37 0 c-21 0
-43 4 -50 8 -24 15 -33 67 -33 193 l0 129 60 0 60 0 0 65 0 65 -60 0 -60 0 0
140 0 140 -75 0 -75 0 0 -140z"/>
<path d="M723 1187 c-30 -20 -33 -27 -33 -74 l0 -53 75 0 75 0 0 54 c0 51 -2
56 -34 75 -41 25 -43 25 -83 -2z"/>
<path d="M1550 947 c-134 -39 -222 -152 -224 -287 -1 -128 61 -233 172 -287
48 -24 69 -28 137 -28 71 1 87 4 143 34 101 55 152 134 160 247 8 131 -47 234
-157 292 -71 38 -160 49 -231 29z m169 -164 c95 -71 95 -195 1 -265 -65 -48
-171 -27 -217 44 -53 80 -26 184 60 228 50 25 115 22 156 -7z"/>
<path d="M2647 946 c-224 -63 -300 -352 -134 -514 64 -63 126 -87 222 -86 99
0 160 28 228 104 105 117 104 286 -3 403 -81 89 -202 125 -313 93z m173 -164
c123 -91 74 -276 -77 -289 -65 -5 -120 26 -150 87 -29 56 -29 94 0 145 44 78
158 107 227 57z"/>
<path d="M2330 945 c-8 -2 -32 -6 -53 -10 -24 -4 -53 -20 -78 -42 l-39 -35 0
41 0 41 -75 0 -75 0 0 -290 0 -290 78 0 77 0 1 145 c1 130 4 149 25 192 29 57
89 93 157 93 l43 0 -3 78 c-3 81 -8 88 -58 77z"/>
<path d="M3251 919 c-110 -55 -166 -158 -159 -292 6 -120 68 -215 172 -263 87
-41 219 -29 280 24 19 17 19 16 12 -32 -7 -53 -39 -105 -84 -134 -36 -24 -149
-21 -224 5 l-57 20 -24 -56 c-17 -39 -22 -60 -14 -69 5 -7 41 -22 79 -33 99
-30 241 -24 314 14 53 27 93 67 121 121 38 72 43 124 43 424 l0 292 -75 0
c-75 0 -75 0 -75 -27 0 -24 -1 -25 -18 -10 -33 30 -90 47 -160 47 -57 0 -80
-5 -131 -31z m215 -128 c84 -38 121 -149 72 -220 -53 -78 -139 -102 -213 -59
-45 26 -85 93 -85 143 0 49 40 107 90 133 54 27 82 27 136 3z"/>
<path d="M50 933 c0 -4 54 -134 119 -288 l118 -280 59 0 58 0 122 288 122 288
-85 -3 -85 -3 -63 -168 c-35 -93 -65 -171 -68 -173 -2 -3 -33 73 -69 168 l-65
173 -81 3 c-45 2 -82 -1 -82 -5z"/>
<path d="M690 650 l0 -290 75 0 75 0 0 290 0 290 -75 0 -75 0 0 -290z"/>
</g>
</svg>
